<?xml version="1.0" encoding="UTF-8" standalone="no" ?>
<!DOCTYPE svg PUBLIC "-//W3C//DTD SVG 1.1//EN" "http://www.w3.org/Graphics/SVG/1.1/DTD/svg11.dtd">
<svg xmlns="http://www.w3.org/2000/svg" xmlns:xlink="http://www.w3.org/1999/xlink" version="1.1" width="143.5676" height="111.13600000000001" xml:space="preserve">
<desc>Created with Fabric.js 1.6.0-rc.1</desc>
<defs></defs>
<g style="stroke: none; stroke-width: 1; stroke-dasharray: none; stroke-linecap: butt; stroke-linejoin: miter; stroke-miterlimit: 10; fill: none; fill-rule: nonzero; opacity: 1;" transform="translate(10 10) scale(1.78 1.78)" >
  <path d="M 38.637 19.345 c 0 0 -2.971 -14.649 -11.748 -17.622 C 18.116 -1.248 7.571 0.026 0 2.502 c 0 0 4.811 3.68 7.571 6.653 c 2.76 2.971 7.833 9.128 12.641 10.291 C 24.884 20.576 30.925 20.478 38.637 19.345" style="stroke: none; stroke-width: 1; stroke-dasharray: none; stroke-linecap: butt; stroke-linejoin: miter; stroke-miterlimit: 10; fill: #168a3f; fill-rule: nonzero; opacity: 1;" transform=" matrix(1 0 0 1 0 0) " stroke-linecap="round" />
  <path d="M 68.424 37.157 c 0 0 -0.926 -11.71 -7.489 -14.863 c -6.563 -3.151 -14.486 -3.174 -20.599 -2.001 c 0.372 1.66 1.539 4.925 4.414 8.283 c 2.549 2.973 6.273 5.38 9.837 6.935 C 58.152 37.065 62.297 37.307 68.424 37.157" style="stroke: none; stroke-width: 1; stroke-dasharray: none; stroke-linecap: butt; stroke-linejoin: miter; stroke-miterlimit: 10; fill: #168a3f; fill-rule: nonzero; opacity: 1;" transform=" matrix(1 0 0 1 0 0) " stroke-linecap="round" />
  <path d="M 38.85 20.478 c 0 0 -16.059 1.638 -22.502 5.732 c -5.883 3.737 -10.475 14.01 -5.52 23.99 c 0 0 4.122 -2.456 8.259 -3.916 c 3.787 -1.337 16.296 -5.496 19.34 -11.017 C 41.467 29.747 39.841 23.804 38.85 20.478" style="stroke: none; stroke-width: 1; stroke-dasharray: none; stroke-linecap: butt; stroke-linejoin: miter; stroke-miterlimit: 10; fill: #48b84e; fill-rule: nonzero; opacity: 1;" transform=" matrix(1 0 0 1 0 0) " stroke-linecap="round" />
  <path d="M 53.347 0.574 c 0 0 2.324 7.667 1.294 10.346 c -1.123 2.925 -5.464 7.425 -14.599 8.064 c 0 0 -3.938 -10.824 -0.059 -14.358 C 43.864 1.091 53.347 0.574 53.347 0.574" style="stroke: none; stroke-width: 1; stroke-dasharray: none; stroke-linecap: butt; stroke-linejoin: miter; stroke-miterlimit: 10; fill: #168a3f; fill-rule: nonzero; opacity: 1;" transform=" matrix(1 0 0 1 0 0) " stroke-linecap="round" />
</g>
</svg>